<?xml version="1.0" encoding="utf-8"?>
<!-- Generator: Adobe Illustrator 24.0.1, SVG Export Plug-In . SVG Version: 6.00 Build 0)  -->
<svg version="1.1" id="Layer_1" xmlns="http://www.w3.org/2000/svg" xmlns:xlink="http://www.w3.org/1999/xlink" x="0px" y="0px"
	 viewBox="0 0 82.1 32.4" style="enable-background:new 0 0 82.1 32.4;" xml:space="preserve">
<style type="text/css">
	.st0{fill:#FFFFFF;}
	.st1{fill:none;}
</style>
<title>animals_ara</title>
<g id="animals_ara">
	<path class="st0" d="M0.9,16.4c0-1.1,0.2-2.3,0.5-3.4h2.4c-0.3,1.1-0.4,2.3-0.4,3.4c-0.2,1.6,1,3.1,2.7,3.3c0.1,0,0.3,0,0.4,0h6.5
		c1.2,0,1.7-0.5,1.7-1.5v-6.9h2.5V19c0,1.9-1.3,2.9-3.1,2.9H6.2C2.8,21.9,0.9,19.7,0.9,16.4 M5.6,9c0-0.8,0.7-1.5,1.5-1.5
		c0,0,0,0,0,0C8,7.4,8.7,8.1,8.7,9c0,0,0,0,0,0c0,0.9-0.7,1.6-1.6,1.6c0,0,0,0,0,0C6.3,10.5,5.6,9.8,5.6,9C5.6,9,5.6,9,5.6,9 M9.6,9
		c0-0.8,0.7-1.5,1.5-1.5c0.8,0,1.5,0.7,1.5,1.5c0,0,0,0,0,0c0.1,0.9-0.6,1.6-1.4,1.7c-0.9,0.1-1.6-0.6-1.7-1.4
		C9.6,9.1,9.6,9.1,9.6,9"/>
	<path class="st0" d="M25.3,19.6v2.1h-0.4h-1.1c-1.9,0-3.1-1-3.1-2.9v-14h2.5V18c0,1,0.5,1.5,1.7,1.5L25.3,19.6z"/>
	<path class="st0" d="M25.9,19.6c1.2,0,1.7-0.5,1.7-1.5v-6.9H30V19c0,1.9-1.2,2.9-3.1,2.9h-2.1l-0.4-0.2v-1.8l0.4-0.2L25.9,19.6z
		 M27.3,7.3c0-0.9,0.7-1.6,1.5-1.6c0,0,0,0,0,0c0.9,0.1,1.5,0.8,1.4,1.7c-0.1,0.8-0.7,1.4-1.4,1.4C28,8.8,27.3,8.2,27.3,7.3
		C27.3,7.3,27.3,7.3,27.3,7.3"/>
	<rect x="33" y="5" class="st0" width="2.5" height="16.8"/>
	<path class="st0" d="M50.6,19.9v1.8l-0.4,0.2h-2.7c0,3.6-1.7,5.4-5.3,5.4c-1.3,0-2.6-0.1-3.9-0.5v-2.2c1.3,0.2,2.6,0.4,3.9,0.4
		c1.9,0,2.9-0.5,2.9-3h-1.9c-3.4,0-5.5-1.9-5.5-5.3s2.1-5.5,5.5-5.5c1.5,0,3.1,0.4,4.3,1.3v7.3h2.6L50.6,19.9z M45,13.7
		c-0.6-0.3-1.2-0.5-1.9-0.5c-1.8,0-2.9,1.3-2.9,3.3c-0.2,1.5,1,2.9,2.5,3.1c0.1,0,0.3,0,0.4,0H45L45,13.7z"/>
	<path class="st0" d="M58.6,19.9v1.8l-0.4,0.2h-8l-0.4-0.2v-1.8l0.4-0.2h2.8v-8.4h2.5v8.4h2.8L58.6,19.9z M53.8,25.5
		c0,0.8-0.6,1.4-1.4,1.4c-0.8,0-1.4-0.6-1.3-1.4c0-0.8,0.6-1.4,1.4-1.3C53.2,24.1,53.8,24.7,53.8,25.5 M57.3,25.5
		c0,0.8-0.6,1.4-1.4,1.4c-0.8,0-1.4-0.6-1.4-1.4c0-0.8,0.6-1.4,1.4-1.4c0,0,0,0,0,0C56.7,24.1,57.3,24.7,57.3,25.5
		C57.3,25.4,57.3,25.5,57.3,25.5"/>
	<path class="st0" d="M70.2,19.6v2.1h-0.4H58.1h-0.4v-2.1h0.4h6.8v-3.3c0.1-1.6-1.1-3-2.6-3.1c-0.1,0-0.2,0-0.3,0
		c-1.2,0-2.3,0.2-3.4,0.5v-2.3c1.1-0.3,2.3-0.5,3.4-0.5c3.4,0,5.5,2,5.5,5.4v3.3h2.3H70.2z"/>
	<path class="st0" d="M70.9,19.6c1.1,0,1.6-0.5,1.6-1.5V5H75v14c0,1.9-1.2,2.9-3.1,2.9h-2.1h-0.4v-2.3h0.4H70.9z"/>
	<rect x="78.8" y="5" class="st0" width="2.5" height="16.8"/>
</g>
<rect class="st1" width="82.1" height="32.4"/>
</svg>
