<?xml version="1.0" encoding="utf-8"?>
<!-- Generator: Adobe Illustrator 24.0.1, SVG Export Plug-In . SVG Version: 6.00 Build 0)  -->
<svg version="1.1" id="Layer_1" xmlns="http://www.w3.org/2000/svg" xmlns:xlink="http://www.w3.org/1999/xlink" x="0px" y="0px"
	 viewBox="0 0 82.1 32.4" style="enable-background:new 0 0 82.1 32.4;" xml:space="preserve">
<style type="text/css">
	.st0{fill:#FFFFFF;}
	.st1{fill:none;}
</style>
<title>animals_eng</title>
<g id="animals_eng">
	<path class="st0" d="M12.1,18.4H5.3L4.1,22H1.4L6.6,6.1h4.2L16.1,22h-2.7L12.1,18.4z M11.3,15.8L8.8,8.5H8.6l-2.4,7.3H11.3z"/>
	<path class="st0" d="M27.5,14.8V22h-2.5v-6.4c0-1.9-1-2.7-2.4-2.7c-1.7,0-3,1.2-3,4v5h-2.5V10.5h2.5v2.6c0.6-1.7,2.3-2.8,4.1-2.8
		C26,10.4,27.5,11.9,27.5,14.8z"/>
	<path class="st0" d="M29.3,7.5c0-0.8,0.6-1.5,1.5-1.5c0,0,0.1,0,0.1,0c0.8,0,1.5,0.6,1.5,1.4c0,0,0,0.1,0,0.1C32.4,8.3,31.8,9,31,9
		c0,0,0,0-0.1,0C30,9.1,29.3,8.4,29.3,7.5C29.3,7.5,29.3,7.5,29.3,7.5z M29.6,10.5h2.5V22h-2.5V10.5z"/>
	<path class="st0" d="M52.1,14.8V22h-2.5v-6.4c0-1.9-1-2.7-2.2-2.7c-1.7,0-3,1.2-3,4v5H42v-6.3c0-1.9-1-2.7-2.2-2.7
		c-1.8,0-3,1.2-3,4v5h-2.5V10.5h2.5v2.6c0.6-1.6,2.2-2.7,3.9-2.7c1.8-0.1,3.3,1.1,3.6,2.9c0.6-1.7,2.2-2.8,4-2.9
		C50.6,10.4,52.1,11.9,52.1,14.8z"/>
	<path class="st0" d="M63.6,14.7v6.5c-1.7,0.6-3.4,0.9-5.2,0.9c-3.1,0-4.8-1.3-4.8-3.4s1.5-3.6,5-3.6h2.5V15c0-1.8-0.9-2.3-3-2.3
		c-1.3,0-2.6,0.3-3.7,1v-2.2c1.2-0.8,2.6-1.2,4-1.1C61.9,10.5,63.6,11.9,63.6,14.7z M61.1,19.7v-2.6h-2.9c-1.7,0-2.1,0.8-2.1,1.5
		c0,0.9,0.8,1.4,2.2,1.4C59.3,20.1,60.2,20,61.1,19.7L61.1,19.7z"/>
	<path class="st0" d="M65.7,6.1h2.4V22h-2.5L65.7,6.1z"/>
	<path class="st0" d="M70,18.3h2.6c0,1,1.5,1.5,2.9,1.5c1.7,0,2.7-0.2,2.7-0.9s-0.9-0.9-1.8-1.1l-2.2-0.4c-2.4-0.4-3.9-1.5-3.9-3.2
		c0-2.3,2.1-3.8,5-3.8s5.2,1.5,5.1,3.7h-2.6c0-0.8-1.1-1.3-2.5-1.3s-2.5,0.3-2.5,1.2c0,0.6,0.6,1,1.8,1.2l2.5,0.4
		c2.1,0.4,3.6,1.2,3.6,2.9c0,2.4-2.2,3.7-5.4,3.7S69.9,20.6,70,18.3z"/>
</g>
<rect class="st1" width="82.1" height="32.4"/>
</svg>
