<svg xmlns="http://www.w3.org/2000/svg" viewBox="0 0 72.93 59.01"><defs><style>.cls-1{fill:#fff;opacity:0.9;}</style></defs><title>Asset 4</title><g id="Layer_2" data-name="Layer 2"><g id="Layer_2-2" data-name="Layer 2"><path class="cls-1" d="M39.79,7.39c1.25.07,2.5.07,3.74.23,6.27.79,12.31,2.38,17.75,5.7A22.32,22.32,0,0,1,71.8,28a64.83,64.83,0,0,1,.86,7.8c.11,1.15.18,2.31.27,3.47l-.25,0c-.25-.94-.57-1.86-.74-2.81-.33-1.9-.56-3.82-.87-5.72a11.45,11.45,0,0,0-2-4.62c.19,1.72.48,3.44.55,5.16a71,71,0,0,1,0,8,39.65,39.65,0,0,0,1.46,14.34A16.41,16.41,0,0,1,71.53,59h-9a28,28,0,0,0,.68-3,17.08,17.08,0,0,0-1.31-9.28,7.71,7.71,0,0,0-6.18-4.46c-3.31-.48-6.67-.69-10-1-1-.09-1.9-.19-2.85-.24-.49,0-.66-.26-.67-.71V36c0-.35.05-.7,0-1.07a18,18,0,0,0-1,5.42c.08,3,.22,5.91.46,8.85.27,3.1.69,6.2,1,9.3a4.16,4.16,0,0,1,0,.5H35.21c.1-1,.17-1.95.31-2.88A13.33,13.33,0,0,0,35,50.52a82.46,82.46,0,0,1-2.69-11.61,1.29,1.29,0,0,0-1-1.19c-.87-.29-1.7-.7-2.55-1l-.16.2A7.76,7.76,0,0,0,30,38a2.24,2.24,0,0,1,1.42,2.21c0,1.07.36,2.11.46,3.18a8.75,8.75,0,0,1-.06,2.17c-.67,4.31-1.39,8.6-2.08,12.9-.06.36-.12.57-.54.57H22.34a1.23,1.23,0,0,1-.3-.08c.27-.69.51-1.35.77-2a16.14,16.14,0,0,0,1.25-6.47A90.94,90.94,0,0,1,25.2,34.13a1.42,1.42,0,0,1,.95-1.24c4.91-2.15,9.77-4.41,14.7-6.5,2.44-1,3.58-2.61,3.35-5.29C44,19,44.1,16.86,44,14.74a7.83,7.83,0,0,0-3.89-6.83,2.72,2.72,0,0,1-.38-.31ZM29.19,5.9c-2.74-.22-5.25.68-7.77,1.61-2.7,1-5.39,2-8.15,2.84A9.6,9.6,0,0,1,6.68,10a3.57,3.57,0,0,1-1.07-6,4,4,0,0,1,4.94.46,2.24,2.24,0,0,0,2.55.39,4.34,4.34,0,0,0-.21-.61,8,8,0,0,0-5.1-4A5.73,5.73,0,0,0,1.24,2.65,9.1,9.1,0,0,0,.05,6.35,12.39,12.39,0,0,0,5.38,17.9a11.3,11.3,0,0,0,5.94,2.38c.6,0,1.21.08,1.85.12l-5.6,6.44a1.13,1.13,0,0,0,.68.1,38.49,38.49,0,0,1,3.83-.47,22.33,22.33,0,0,1,7.39,1.42c1.35.43,1.33.42,1.78-.89s1-2.75,1.51-4.13c-.36,2.3-.89,4.54-1.39,6.79a2.58,2.58,0,0,0,.84,2.84,2.36,2.36,0,0,0,2.62,0c5.33-2.39,10.63-4.83,16-7.14a3.63,3.63,0,0,0,2.46-3.88c-.11-2.41-.14-4.81-.25-7.22A6.89,6.89,0,0,0,41.35,10C38.49,6.69,32.89,5.83,28.85,8L28,8.5l-.14-.22,3.22-2.13C30.4,6.06,29.8,6,29.19,5.9ZM16.46,13.48c.35.28.16.53-.22.64-.67.2-1.25-.17-1.63-1.07A1.67,1.67,0,0,1,16.46,13.48ZM51.21,59c2.71,0,5.43,0,8.14,0,.47,0,.65-.21.66-.63.05-1.85.14-3.7.12-5.56,0-2.25-.16-4.51-.3-6.77a1.32,1.32,0,0,0-.55-1,14.05,14.05,0,0,0-3.6-1.65c-2.16-.45-4.38-.57-6.58-.83a5.56,5.56,0,0,0-.58,0c1,.9,1.95,1.7,2.83,2.56a3.86,3.86,0,0,1,1.31,2.92c-.09,2.28-.15,4.57-.45,6.82A24.79,24.79,0,0,1,50.94,59,2.51,2.51,0,0,0,51.21,59Z"/></g></g></svg>