<svg xmlns="http://www.w3.org/2000/svg" viewBox="0 0 69.73 68.16"><defs><style>.cls-1{fill:#fff;opacity:0.9;}</style></defs><title>Asset 8</title><g id="Layer_2" data-name="Layer 2"><g id="Layer_2-2" data-name="Layer 2"><path class="cls-1" d="M0,34A34.16,34.16,0,0,1,25.82,1c2.58-.64,4.25.37,4.07,2.48-.14,1.62-1.3,2.06-2.66,2.42C18.8,8.17,12.35,13,8.29,20.81A28.84,28.84,0,0,0,30.65,62.73c1.31.15,2.61.3,3.92.34,1.75,0,2.81.8,2.76,2.6S36.21,68,34.58,68.06a33.76,33.76,0,0,1-22-7.69A33.58,33.58,0,0,1,0,34ZM62,14.19c-.33-.45-.65-.9-1-1.33C54.57,4.94,46.53.19,36.11,0c-1.71,0-2.85.57-3,2.35-.17,1.57,1,2.57,3,2.64,8.87.34,15.83,4.29,21.18,11.26.34.45.61.94,1.24,1.92-2.09-.6-3.59-1.06-5.11-1.44s-3-.06-3.45,1.7.42,2.73,2.11,3.2c3.58,1,7.14,2.08,10.72,3.08,2.05.57,3.09,0,3.72-2.13q1.6-5.34,3.11-10.71c.45-1.6.12-3-1.61-3.49s-2.77.35-3.24,2-1,3.25-1.58,5.28ZM36.51,14.1c0-2.3-.76-3.31-2.45-3.33s-2.52,1-2.53,3.25q0,10.88,0,21.76c0,2.49.73,3.22,3.18,3.23q9.23,0,18.45,0c2.27,0,3.28-.79,3.27-2.5s-1-2.47-3.3-2.47H36.51ZM52.25,63.16a3,3,0,0,0,.5-2.85,3.28,3.28,0,0,0-2.85-1.22A59.5,59.5,0,0,0,41,62.9a3.36,3.36,0,0,0-1.09,2.9c.13.8,1.33,1.43,2.29,2.36C45.79,66.42,49.11,65,52.25,63.16ZM63.09,46.62c-1.25-.57-2.33,0-3.15,1.21-1.54,2.2-3.14,4.34-4.81,6.44-1.05,1.32-1.35,2.62-.1,3.85a2.35,2.35,0,0,0,3.78-.34c1.9-2.36,3.65-4.82,5.42-7.27A9.74,9.74,0,0,0,65,48.64C64.4,48,63.89,47,63.09,46.62ZM68.87,35c0-.35,0-.69,0-1,0-2.28-.77-3.29-2.47-3.31S64,31.66,63.87,34a50.83,50.83,0,0,1-.93,7.16c-.39,1.8,0,3,1.71,3.62,1.52.53,2.9-.52,3.3-2.54.46-2.36.76-4.75,1.13-7.13Z"/></g></g></svg>