<?xml version="1.0" encoding="utf-8"?>
<!-- Generator: Adobe Illustrator 24.0.1, SVG Export Plug-In . SVG Version: 6.00 Build 0)  -->
<svg version="1.1" id="Layer_1" xmlns="http://www.w3.org/2000/svg" xmlns:xlink="http://www.w3.org/1999/xlink" x="0px" y="0px"
	 viewBox="0 0 81.4 32.4" style="enable-background:new 0 0 81.4 32.4;" xml:space="preserve">
<style type="text/css">
	.st0{fill:#FFFFFF;}
	.st1{fill:none;}
</style>
<title>future_ara</title>
<g id="future_ara">
	<path class="st0" d="M15.8,19.9v1.8l-0.4,0.2h-2.8c-0.2,3.3-2.3,5.3-6.1,5.3c-4,0-5.9-2.1-5.9-5.8c0-1.2,0.2-2.4,0.5-3.6h2.2
		C3,19,2.9,20.2,2.9,21.4c0,2.3,1.2,3.5,3.7,3.5s3.6-1.2,3.6-3.5V5h2.5v14.6h2.8L15.8,19.9z"/>
	<path class="st0" d="M23.8,19.9v1.8l-0.4,0.2h-8l-0.4-0.2v-1.8l0.4-0.2h2.8v-8.4h2.4v8.4h2.8L23.8,19.9z M20.9,25.9
		c0,0.8-0.7,1.5-1.5,1.5c0,0,0,0,0,0c-0.8,0-1.5-0.7-1.5-1.5c0,0,0,0,0,0c-0.1-0.9,0.6-1.6,1.4-1.7c0.9-0.1,1.6,0.6,1.7,1.4
		C20.9,25.7,20.9,25.8,20.9,25.9"/>
	<path class="st0" d="M37.6,19.9v1.8l-0.4,0.2H23.4l-0.4-0.2v-1.8l0.4-0.2h3.4c-1.1-0.9-1.7-2.3-1.6-3.8c0-2.9,1.9-4.8,5-4.8
		s5,1.9,5,4.8c0.1,1.4-0.5,2.9-1.6,3.8h3.5L37.6,19.9z M26.7,7.1c0-0.8,0.7-1.5,1.5-1.5c0,0,0,0,0,0c0.9,0,1.6,0.7,1.6,1.5
		c0,0,0,0,0,0c0,0.9-0.7,1.6-1.6,1.6c0,0,0,0,0,0C27.4,8.6,26.7,7.9,26.7,7.1C26.7,7.1,26.7,7.1,26.7,7.1 M30.2,19.6
		c1.5-0.6,2.5-2.1,2.4-3.7c0.1-1.3-0.9-2.5-2.2-2.7c-1.3-0.1-2.5,0.9-2.7,2.2c0,0.1,0,0.3,0,0.4C27.7,17.6,28.7,19.1,30.2,19.6
		 M30.7,7c0-0.9,0.7-1.5,1.6-1.5c0.8,0,1.5,0.7,1.5,1.5c0,0,0,0,0,0.1c0.1,0.9-0.6,1.6-1.4,1.7c-0.9,0.1-1.6-0.6-1.7-1.4
		C30.7,7.2,30.7,7.1,30.7,7"/>
	<path class="st0" d="M45.6,19.9v1.8l-0.4,0.2h-8l-0.5-0.2v-1.8l0.4-0.2h2.8v-8.4h2.5v8.4h2.8L45.6,19.9z M37.6,7.3
		c0-0.9,0.7-1.5,1.5-1.5c0,0,0,0,0,0c0.9,0,1.6,0.7,1.6,1.5c0,0,0,0,0,0c0,0.9-0.7,1.6-1.6,1.6c0,0,0,0,0,0
		C38.2,8.8,37.5,8.1,37.6,7.3C37.5,7.3,37.5,7.3,37.6,7.3 M41.6,7.3c0-0.9,0.7-1.5,1.6-1.5c0.9,0.1,1.5,0.8,1.4,1.7
		c-0.1,0.8-0.7,1.4-1.4,1.4C42.3,8.8,41.6,8.1,41.6,7.3C41.6,7.3,41.6,7.3,41.6,7.3"/>
	<polygon class="st0" points="68.3,19.7 68.3,21.8 67.9,21.9 45.1,21.9 44.7,21.8 44.7,19.7 45.1,19.6 48,19.6 48,12.4 50.5,12.4 
		50.5,19.6 55.2,19.6 55.2,12.4 57.7,12.4 57.7,19.6 62.4,19.6 62.4,11.8 64.9,11.8 64.9,19.6 67.9,19.6 	"/>
	<path class="st0" d="M80.8,16.6c0,3.4-2.1,5.3-5.4,5.3h-7.5h-0.4v-2.1h0.4h2.6c-0.2-1.1-0.3-2.1-0.3-3.2c0-2.8,1.1-5.4,5.2-5.4
		C78.7,11.1,80.8,13.1,80.8,16.6 M78.3,16.6c0-2-1.2-3.3-2.9-3.3c-2,0-2.5,1.5-2.5,3.1c0,1.1,0.2,2.2,0.5,3.3h2
		c1.6,0,2.9-1.2,2.9-2.8C78.3,16.9,78.3,16.8,78.3,16.6"/>
</g>
<rect class="st1" width="81.4" height="32.4"/>
</svg>
