<?xml version="1.0" encoding="utf-8"?>
<!-- Generator: Adobe Illustrator 24.0.1, SVG Export Plug-In . SVG Version: 6.00 Build 0)  -->
<svg version="1.1" id="Layer_1" xmlns="http://www.w3.org/2000/svg" xmlns:xlink="http://www.w3.org/1999/xlink" x="0px" y="0px"
	 viewBox="0 0 81.4 32.4" style="enable-background:new 0 0 81.4 32.4;" xml:space="preserve">
<style type="text/css">
	.st0{fill:#FFFFFF;}
	.st1{fill:none;}
</style>
<title>future_eng</title>
<g id="future_eng">
	<path class="st0" d="M11.9,8.6v4.4h7v2.5h-7V22H9.2V6.1h10.6v2.5H11.9z"/>
	<path class="st0" d="M31.3,10.6V22h-2.5v-2.9c-0.4,1.8-2.1,3.1-4,3.1c-2.3,0-3.8-1.5-3.8-4.4v-7.2h2.5V17c0,1.9,1,2.7,2.3,2.7
		c1.8,0,3-1.2,3-4v-5L31.3,10.6z"/>
	<path class="st0" d="M39.6,19.5v2.3c-0.8,0.2-1.6,0.3-2.4,0.3c-2.9,0-3.1-1.8-3.1-3.7v-5.8h-1.8v-2.1h1.8v-3h2.5v3h2.8v2.1h-2.8
		v5.7c0,0.9,0.1,1.4,1.2,1.4C38.4,19.8,39,19.7,39.6,19.5z"/>
	<path class="st0" d="M51.2,10.6V22h-2.5v-2.9c-0.4,1.8-2.1,3.1-4,3.1c-2.3,0-3.8-1.5-3.8-4.4v-7.2h2.5V17c0,1.9,1,2.7,2.3,2.7
		c1.7,0,3-1.2,3-4v-5L51.2,10.6z"/>
	<path class="st0" d="M60.6,10.5v2.4c-3.8,0-4.7,1.3-4.7,4.1v5h-2.4V10.5h2.4v2.6C56.5,11.6,57,10.5,60.6,10.5z"/>
	<path class="st0" d="M72,17.2h-8.1c0.3,1.7,1.4,2.5,3.8,2.5c1.4,0,2.8-0.3,4.1-0.9v2.4c-1.3,0.6-2.7,0.9-4.2,0.9
		c-4.1,0-6.4-2.3-6.4-5.8s2.3-5.9,5.6-5.9s5.4,2.2,5.4,5.1C72.3,16.1,72.2,16.6,72,17.2z M63.9,15.4h6c0-1.8-1.4-2.6-3-2.6
		C65.3,12.7,64,13.8,63.9,15.4z"/>
</g>
<rect class="st1" width="81.4" height="32.4"/>
</svg>
