<svg id="Layer_1" data-name="Layer 1" xmlns="http://www.w3.org/2000/svg" viewBox="0 0 286.62 148.37"><defs><style>.cls-1{fill:#010101;}.cls-2{fill:none;}</style></defs><title>languange_ara</title><path class="cls-1" d="M191.31,413.31c0-3.84-4.34-6.5-13.9-10.64C165.58,397.54,165,391.13,165,386.79c0-8.38,8.58-16.47,20.61-16.47,11.64,0,18.24,7.5,23.86,14.5,5.23,6.51,10.75,12.62,18.15,12.62l2,.2v9.46l-2,.2c-13.41,0-19.13-8-24.85-14.79-5.23-6.21-10.45-12.23-17.16-12.23-5.72,0-9.76,2.67-9.76,6.41,0,2.86,1.18,4.64,11.54,9.27,9.66,4.34,14.79,9.37,14.79,17.16,0,10.55-8.78,17.45-29.58,17.45-23.17,0-31.75-9.47-31.75-24.35a66.32,66.32,0,0,1,2.17-15h10.65a67.54,67.54,0,0,0-2,14.1c0,10,5.43,15.38,20.91,15.38,14.89,0,18.73-2.37,18.73-7.4" transform="translate(-99.25 -306.29)"/><path class="cls-1" d="M158.77,446.45a6.07,6.07,0,0,1,12.13,0,6.16,6.16,0,0,1-6.21,6.11,6,6,0,0,1-5.92-6.11" transform="translate(-99.25 -306.29)"/><path class="cls-1" d="M174.35,446.45a6.06,6.06,0,0,1,6.11-6,5.89,5.89,0,0,1,5.92,6,6,6,0,1,1-12,0" transform="translate(-99.25 -306.29)"/><path class="cls-1" d="M232.32,397.44c5.13,0,7.4-2.07,7.4-6.71V360.46h10.85v34.12c0,8.38-5.43,12.72-13.61,12.72h-9.37l-2-1v-7.88l2-1Z" transform="translate(-99.25 -306.29)"/><path class="cls-1" d="M234.59,425a6.81,6.81,0,1,1,6.71,6.7,6.65,6.65,0,0,1-6.71-6.7" transform="translate(-99.25 -306.29)"/><path class="cls-1" d="M302.63,398.43v7.88l-2,1H288.53c0,15.78-6.61,23.37-22.39,23.37-4,0-11.43-1.78-11.43-2.17v-10c3.55,1.78,7.69,2.17,11.43,2.17,8.19,0,11.44-2.47,11.44-13.71V362.24h10.95v35.2h12.12Z" transform="translate(-99.25 -306.29)"/><path class="cls-1" d="M317.91,383.14c0,8.38,5.32,14.3,12.91,14.3h14.6v9.86H300.65l-2-.2v-9.46l2-.2h12.43a19.17,19.17,0,0,1-6.61-14.3c0-14.79,9.07-23.66,24.35-23.66a65.6,65.6,0,0,1,14.7,2.17V371.7a59.85,59.85,0,0,0-14.7-2.26c-7.78,0-12.91,5.52-12.91,13.7" transform="translate(-99.25 -306.29)"/><rect class="cls-2" width="286.62" height="148.37"/></svg>