<svg id="Layer_1" data-name="Layer 1" xmlns="http://www.w3.org/2000/svg" viewBox="0 0 286.62 148.37"><defs><style>.cls-1{fill:#231f20;}.cls-2{fill:none;}</style></defs><title>language_eng</title><path class="cls-1" d="M147.18,396v10.07H105V342.85h41.87v10.07H115.64V369h28v10.07h-28V396Z" transform="translate(-99.25 -306.29)"/><path class="cls-1" d="M195.38,377.33v28.78h-9.8V380.72c0-7.49-4-10.61-9.71-10.61-7,0-12,4.81-12,15.95v20.05H154V360.49h9.8V371a17.09,17.09,0,0,1,16.39-11C189.23,360,195.38,365.84,195.38,377.33Z" transform="translate(-99.25 -306.29)"/><path class="cls-1" d="M247.32,360.49v44.19c0,13.46-7,20.32-22.9,20.32-14.43,0-20.67-5.71-21.11-15.51h10.42c.8,4,4,7.13,10.78,7.13,8.11,0,13-2.94,13-11.94v-4.36c-2.94,4.9-7.75,6.32-13.81,6.32-12.12,0-21.74-9.09-21.74-23.34S210.7,360,222.55,360c6.24,0,11.67,2.49,15,8.1v-7.57Zm-9.8,22.81c0-8.38-5-14.08-12.65-14.08s-12.66,5.7-12.66,14.08,5,14.08,12.66,14.08S237.52,391.67,237.52,383.3Z" transform="translate(-99.25 -306.29)"/><path class="cls-1" d="M256.23,342.85H266v63.26h-9.8Z" transform="translate(-99.25 -306.29)"/><path class="cls-1" d="M273.69,348.29a6,6,0,0,1,6.23-6.15,5.94,5.94,0,0,1,6.15,6.15,6,6,0,0,1-6.15,6.23A6.08,6.08,0,0,1,273.69,348.29Zm1.24,12.2h9.8v45.62h-9.8Z" transform="translate(-99.25 -306.29)"/><path class="cls-1" d="M291.86,391.41h10.25c0,4.1,5.79,6,11.58,6,6.59,0,10.69-.63,10.78-3.66.09-2.49-3.56-3.74-7.13-4.36l-8.73-1.52c-9.44-1.6-15.5-5.88-15.5-12.92,0-9.26,8.28-15,20-15,12.11,0,20.58,5.88,20.4,14.61H323.22c0-3.3-4.27-5.35-10.07-5.35-5.43,0-9.89,1.34-9.89,4.81,0,2.5,2.32,4,6.95,4.82l10,1.69c8.47,1.42,14.53,4.63,14.53,11.4,0,9.36-8.74,14.7-21.57,14.7S291.68,400.58,291.86,391.41Z" transform="translate(-99.25 -306.29)"/><path class="cls-1" d="M383.18,377.33v28.78h-9.8V380.72c0-7.49-4-10.61-9.71-10.61-6.95,0-12,4.81-12,15.95v20.05h-9.8V342.85h9.8V371A17.09,17.09,0,0,1,368,360C377,360,383.18,365.84,383.18,377.33Z" transform="translate(-99.25 -306.29)"/><rect class="cls-2" width="286.62" height="148.37"/></svg>