<svg xmlns="http://www.w3.org/2000/svg" viewBox="0 0 48.99 71.93"><defs><style>.cls-1{fill:#fff;opacity:0.9;}</style></defs><title>Asset 7</title><g id="Layer_2" data-name="Layer 2"><g id="Layer_2-2" data-name="Layer 2"><path class="cls-1" d="M37.84,64.19h8.79v7.74H0V64.2H26.7V52.79H37.79l.1,1.5a13.47,13.47,0,0,0,5.69-5.84,13.85,13.85,0,0,0-10.26-20,1,1,0,0,0-1.26.58c-2.85,5-5.75,10-8.63,15l-.48.77L12.85,39c6.5-11.27,13-22.47,19.47-33.74l10.13,5.85c-2.62,4.55-5.23,9.06-7.87,13.65A17.73,17.73,0,0,1,39.1,58.06a1.81,1.81,0,0,0-1.29,2C37.93,61.41,37.84,62.74,37.84,64.19ZM42,9.89l2.93-5.07L36.53,0,33.6,5.07ZM18.6,62.79V59.71H5.71c-2.87,0-2.87,0-2.58,2.9,0,0,0,.06.1.18ZM12.06,46.2l5.06,2.92,2.93-5.06L15,41.13Z"/></g></g></svg>