<?xml version="1.0" encoding="utf-8"?>
<!-- Generator: Adobe Illustrator 24.0.1, SVG Export Plug-In . SVG Version: 6.00 Build 0)  -->
<svg version="1.1" id="Layer_1" xmlns="http://www.w3.org/2000/svg" xmlns:xlink="http://www.w3.org/1999/xlink" x="0px" y="0px"
	 viewBox="0 0 125.3 32.4" style="enable-background:new 0 0 125.3 32.4;" xml:space="preserve">
<style type="text/css">
	.st0{fill:#FFFFFF;}
	.st1{fill:none;}
</style>
<title>microscopic_eng</title>
<g id="microscopic_eng">
	<path class="st0" d="M18.2,6.1V22h-2.7V10.9L10.6,22H8.3L3.4,10.9V22H0.7V6.1h3.2l5.5,12l5.5-12H18.2z"/>
	<path class="st0" d="M20.4,7.5c0-0.8,0.6-1.5,1.5-1.5c0,0,0.1,0,0.1,0c0.8,0,1.5,0.6,1.5,1.4c0,0,0,0.1,0,0.1
		c0,0.8-0.6,1.5-1.5,1.6c0,0,0,0-0.1,0C21.2,9.1,20.5,8.4,20.4,7.5C20.4,7.5,20.4,7.5,20.4,7.5z M20.8,10.5h2.5V22h-2.5V10.5z"/>
	<path class="st0" d="M25,16.3c0-3.6,2.1-5.9,5.6-5.9c3.2,0,5.2,1.8,5.6,4.3h-2.6c-0.4-1.3-1.6-2.1-2.9-2c-1.9,0-3.1,1.5-3.1,3.5
		s1.3,3.5,3.1,3.5c1.3,0.1,2.5-0.7,2.9-2h2.6c-0.4,2.5-2.3,4.3-5.6,4.3C27.1,22.1,25,19.9,25,16.3z"/>
	<path class="st0" d="M44.8,10.5v2.4c-3.8,0-4.7,1.3-4.7,4.1v5h-2.4V10.5h2.4v2.6C40.8,11.7,41.2,10.5,44.8,10.5z"/>
	<path class="st0" d="M45.5,16.3c0-3.6,2.2-5.9,5.8-5.9s5.8,2.3,5.8,5.9s-2.2,5.9-5.8,5.9S45.5,19.9,45.5,16.3z M54.4,16.3
		c0-2.1-1.3-3.5-3.2-3.5s-3.2,1.4-3.2,3.5s1.3,3.5,3.2,3.5S54.4,18.4,54.4,16.3L54.4,16.3z"/>
	<path class="st0" d="M58.3,18.3h2.6c0,1,1.5,1.5,2.9,1.5c1.7,0,2.7-0.2,2.7-0.9s-0.9-0.9-1.8-1.1l-2.2-0.4
		c-2.4-0.4-3.9-1.5-3.9-3.2c0-2.3,2.1-3.8,5-3.8s5.2,1.5,5.1,3.7h-2.6c0-0.8-1.1-1.3-2.5-1.3s-2.5,0.3-2.5,1.2c0,0.6,0.6,1,1.8,1.2
		l2.5,0.4c2.1,0.4,3.6,1.2,3.6,2.9c0,2.4-2.2,3.7-5.4,3.7S58.3,20.6,58.3,18.3z"/>
	<path class="st0" d="M70.4,16.3c0-3.6,2.1-5.9,5.6-5.9c3.2,0,5.2,1.8,5.5,4.3h-2.6c-0.4-1.3-1.6-2.1-2.9-2c-1.9,0-3.1,1.5-3.1,3.5
		s1.3,3.5,3.1,3.5c1.3,0.1,2.5-0.7,2.9-2h2.6c-0.4,2.5-2.3,4.3-5.5,4.3C72.6,22.1,70.4,19.9,70.4,16.3z"/>
	<path class="st0" d="M82.7,16.3c0-3.6,2.2-5.9,5.7-5.9s5.8,2.3,5.8,5.9s-2.2,5.9-5.8,5.9S82.7,19.9,82.7,16.3z M91.6,16.3
		c0-2.1-1.3-3.5-3.2-3.5s-3.2,1.4-3.2,3.5s1.3,3.5,3.2,3.5S91.6,18.4,91.6,16.3z"/>
	<path class="st0" d="M107.4,16.3c0,3.6-2.4,5.9-5.5,5.9c-1.5,0.1-2.8-0.7-3.5-2v6.5h-2.5V10.5h2.5v2.1c0.7-1.4,2.2-2.3,3.8-2.2
		C105.2,10.4,107.4,12.7,107.4,16.3z M104.8,16.3c0-2.1-1.3-3.5-3.2-3.5s-3.2,1.4-3.2,3.5s1.3,3.5,3.2,3.5S104.8,18.4,104.8,16.3
		L104.8,16.3z"/>
	<path class="st0" d="M108.8,7.5c0-0.8,0.6-1.5,1.5-1.5c0,0,0.1,0,0.1,0c0.8,0,1.5,0.6,1.5,1.4c0,0,0,0.1,0,0.1
		c0,0.8-0.6,1.5-1.5,1.6c0,0,0,0-0.1,0C109.6,9.1,108.9,8.4,108.8,7.5C108.8,7.5,108.8,7.5,108.8,7.5z M109.2,10.5h2.5V22h-2.5V10.5
		z"/>
	<path class="st0" d="M113.4,16.3c0-3.6,2.1-5.9,5.6-5.9c3.2,0,5.2,1.8,5.6,4.3H122c-0.4-1.3-1.6-2.1-2.9-2c-1.9,0-3.1,1.5-3.1,3.5
		s1.3,3.5,3.1,3.5c1.3,0.1,2.5-0.7,2.9-2h2.6c-0.4,2.5-2.3,4.3-5.6,4.3C115.6,22.1,113.4,19.9,113.4,16.3z"/>
</g>
<rect class="st1" width="125.3" height="32.4"/>
</svg>
