<?xml version="1.0" encoding="utf-8"?>
<!-- Generator: Adobe Illustrator 24.0.1, SVG Export Plug-In . SVG Version: 6.00 Build 0)  -->
<svg version="1.1" id="Layer_1" xmlns="http://www.w3.org/2000/svg" xmlns:xlink="http://www.w3.org/1999/xlink" x="0px" y="0px"
	 viewBox="0 0 125.3 32.4" style="enable-background:new 0 0 125.3 32.4;" xml:space="preserve">
<style type="text/css">
	.st0{fill:#FFFFFF;}
	.st1{fill:none;}
</style>
<title>microscopic_ara</title>
<g id="microscopic_ara">
	<path class="st0" d="M41.9,19.9v1.8l-0.4,0.2h-2.2c-1.3,0.1-2.5-0.6-2.9-1.8h-1.9c-3.3,0-5.4-1.9-5.4-4.7s2.2-4.9,5.3-4.9
		c0.6,0,1.3,0.1,1.9,0.3V8.9h2.5v9.2c0,1,0.5,1.5,1.7,1.5h1.1L41.9,19.9z M34.5,17.9h1.8v-4.6c-0.5-0.3-1.1-0.5-1.7-0.5
		c-1.4-0.1-2.7,0.9-2.8,2.4c0,0.1,0,0.2,0,0.3C31.7,16.9,32.8,17.9,34.5,17.9 M31.9,5.6c0.1-0.9,0.8-1.5,1.7-1.4
		c0.8,0.1,1.4,0.7,1.4,1.4c0,0.9-0.7,1.6-1.6,1.6c0,0,0,0,0,0C32.6,7.2,31.9,6.5,31.9,5.6C31.9,5.7,31.9,5.6,31.9,5.6 M35.9,5.6
		c0-0.9,0.7-1.5,1.6-1.5c0.8,0,1.4,0.7,1.4,1.5c0,0.8-0.7,1.5-1.5,1.6c0,0,0,0,0,0C36.6,7.2,35.9,6.5,35.9,5.6
		C35.9,5.6,35.9,5.6,35.9,5.6"/>
	<path class="st0" d="M42.6,19.7c1.2,0,1.7-0.5,1.7-1.5v-6.9h2.5V19c0,1.9-1.2,2.9-3.1,2.9h-2.1L41,21.7v-1.8l0.4-0.2H42.6z
		 M41.1,25.5c0.1-0.8,0.7-1.3,1.5-1.3c0.7,0.1,1.2,0.6,1.3,1.3c0,0.8-0.6,1.4-1.4,1.4c0,0,0,0,0,0C41.7,26.9,41.1,26.3,41.1,25.5
		 M44.6,25.5c0-0.8,0.6-1.4,1.4-1.4c0,0,0,0,0,0c0.7,0,1.4,0.6,1.4,1.3c0,0,0,0,0,0c0.1,0.8-0.5,1.4-1.2,1.5
		c-0.8,0.1-1.4-0.5-1.5-1.2C44.6,25.7,44.6,25.6,44.6,25.5"/>
	<path class="st0" d="M59.2,19.9v1.8l-0.4,0.2h-2.8c0,3.6-1.5,5.3-5.1,5.3c-0.9,0-1.8-0.2-2.6-0.5v-2.3c0.8,0.4,1.7,0.5,2.6,0.5
		c1.9,0,2.6-0.6,2.6-3.1V11.7h2.5v8h2.8L59.2,19.9z"/>
	<path class="st0" d="M72.1,19.7v2.1l-0.4,0h-2c0.5,0.6,0.8,1.4,0.8,2.2c0,2.7-2.2,4.2-5,4.2c-3.3,0-5-1.5-5-5.3v-1.1h-1.7l-0.4,0
		v-2.1l0.4,0h1.7v-6.1c1.1-0.8,2.5-1.3,3.9-1.3c3.1,0,5.3,1.8,5.3,4.7c0.1,1-0.2,1.9-0.8,2.7h2.9L72.1,19.7z M64.2,14.6
		c-0.5,0-0.9,0.1-1.3,0.3v4.9h1.3c1.7,0,2.8-1,2.8-2.5c0-1.4-1.1-2.7-2.5-2.7C64.4,14.5,64.3,14.5,64.2,14.6 M64.9,21.9h-2v1.1
		c0,2.1,0.7,3.1,2.5,3.1c1.4,0,2.6-0.6,2.6-2S66.8,22,64.9,21.9"/>
	<path class="st0" d="M83.8,19.7v2.1l-0.4,0H71.7l-0.4,0v-2.1l0.4,0h6.8v-3.2c0.1-1.6-1.1-3-2.6-3.1c-0.1,0-0.2,0-0.3,0
		c-1.1,0-2.3,0.2-3.4,0.5v-2.3c1.1-0.3,2.3-0.5,3.4-0.5c3.4,0,5.5,1.9,5.5,5.4v3.2h2.3L83.8,19.7z M79.1,25.9c0,0.8-0.7,1.5-1.5,1.5
		c0,0,0,0,0,0c-0.8,0-1.5-0.7-1.5-1.5c0,0,0,0,0,0c-0.1-0.9,0.6-1.6,1.4-1.7c0.9-0.1,1.6,0.6,1.7,1.4C79.1,25.8,79.1,25.8,79.1,25.9
		"/>
	<path class="st0" d="M96.2,16.6c0,3.4-2.1,5.3-5.4,5.3h-7.5l-0.4,0v-2.2l0.4,0h2.6c-0.2-1.1-0.3-2.1-0.3-3.2c0-2.8,1.1-5.4,5.2-5.4
		C94.1,11.1,96.2,13.1,96.2,16.6 M93.7,16.6c0-2-1.2-3.3-2.9-3.3c-2,0-2.5,1.5-2.5,3.1c0.1,1.1,0.2,2.2,0.5,3.3h2
		c1.6,0,2.9-1.2,2.9-2.8C93.7,16.8,93.7,16.7,93.7,16.6"/>
</g>
<rect class="st1" width="125.3" height="32.4"/>
</svg>
