<svg id="Layer_1" data-name="Layer 1" xmlns="http://www.w3.org/2000/svg" viewBox="0 0 58.94 32.44"><defs><style>.cls-1{fill:#fff;}.cls-2{fill:none;}</style></defs><title>past_ara</title><g id="past_ara"><path class="cls-1" d="M149.93,300.59c0-.88-1-1.48-3.15-2.42-2.69-1.16-2.82-2.62-2.82-3.6,0-1.9,1.94-3.74,4.67-3.74s4.14,1.7,5.42,3.29,2.44,2.87,4.11,2.87l.45,0v2.15l-.45,0c-3,0-4.34-1.81-5.63-3.35s-2.38-2.78-3.9-2.78c-1.29,0-2.21.61-2.21,1.46,0,.65.27,1.05,2.62,2.1,2.19,1,3.35,2.13,3.35,3.89,0,2.4-2,4-6.71,4-5.26,0-7.2-2.15-7.2-5.52a15.11,15.11,0,0,1,.49-3.4h2.42a15.24,15.24,0,0,0-.45,3.2c0,2.25,1.23,3.48,4.74,3.48s4.25-.53,4.25-1.67m-7.38,7.51a1.38,1.38,0,0,1,2.75,0,1.4,1.4,0,0,1-1.41,1.39,1.37,1.37,0,0,1-1.34-1.39m3.53,0a1.37,1.37,0,0,1,1.39-1.36,1.33,1.33,0,0,1,1.34,1.36,1.37,1.37,0,1,1-2.73,0" transform="translate(-137.42 -277.36)"/><path class="cls-1" d="M175.09,293.9c0,3.38-2.12,5.32-5.5,5.32H158.16l-.45,0V297l.45,0h2.66v-8.91h2.44v1.17a27.43,27.43,0,0,1,6-.88c3.76,0,5.88,2,5.88,5.53m-2.55,0c0-2-1.18-3.19-3.62-3.19a33.76,33.76,0,0,0-5.66.82V297h6.33a2.86,2.86,0,0,0,2.95-3.14m-4.87-9.41a1.54,1.54,0,0,1,1.54-1.59,1.56,1.56,0,1,1-1.54,1.59" transform="translate(-137.42 -277.36)"/><path class="cls-1" d="M182.83,297v2.15l-.45,0h-1.07c-1.86,0-3.09-1-3.09-2.88v-14h2.46v13.09c0,1,.47,1.52,1.7,1.52Z" transform="translate(-137.42 -277.36)"/><path class="cls-1" d="M195.31,293.9c0,3.38-2.12,5.32-5.43,5.32h-7.5l-.44,0V297l.44,0H185a18.26,18.26,0,0,1-.32-3.2c0-2.75,1.12-5.42,5.24-5.42,3.31,0,5.43,2,5.43,5.53m-2.55,0c0-2-1.18-3.31-2.88-3.31-2,0-2.51,1.54-2.51,3.13a13.82,13.82,0,0,0,.54,3.27h2a2.83,2.83,0,0,0,2.88-3.09" transform="translate(-137.42 -277.36)"/></g><rect class="cls-2" width="58.94" height="32.44"/></svg>