<svg xmlns="http://www.w3.org/2000/svg" viewBox="0 0 69.73 68.16"><defs><style>.cls-1{fill:#fff;opacity:0.9;}</style></defs><title>Asset 3</title><g id="Layer_2" data-name="Layer 2"><g id="Layer_2-2" data-name="Layer 2"><path class="cls-1" d="M57.15,60.37a33.71,33.71,0,0,1-22,7.69c-1.63,0-2.7-.7-2.75-2.39s1-2.56,2.75-2.6c1.31,0,2.62-.19,3.92-.34A28.85,28.85,0,0,0,61.44,20.81C57.38,13,50.93,8.17,42.5,5.9c-1.36-.36-2.52-.8-2.66-2.42C39.66,1.37,41.33.36,43.91,1A34.17,34.17,0,0,1,69.73,34,33.56,33.56,0,0,1,57.15,60.37ZM6.61,15.71C6,13.68,5.48,12.07,5,10.43s-1.57-2.51-3.23-2S-.27,10.27.18,11.87Q1.7,17.24,3.29,22.58C3.93,24.69,5,25.28,7,24.71c3.59-1,7.14-2.09,10.73-3.08,1.68-.47,2.53-1.52,2.11-3.2S18,16.34,16.4,16.73s-3,.84-5.11,1.44c.62-1,.9-1.47,1.24-1.92C17.87,9.28,24.83,5.33,33.71,5c2-.07,3.12-1.07,2.95-2.64C36.47.57,35.32,0,33.62,0,23.2.19,15.16,4.94,8.75,12.86c-.35.43-.67.88-1,1.33Zm29.9-1.61c0-2.3-.76-3.31-2.45-3.33s-2.52,1-2.53,3.25q0,10.88,0,21.76c0,2.49.73,3.22,3.18,3.23q9.23,0,18.45,0c2.27,0,3.28-.79,3.27-2.5s-1-2.47-3.3-2.47H36.51Zm-9,54.06c1-.93,2.16-1.56,2.29-2.36a3.32,3.32,0,0,0-1.08-2.9,60,60,0,0,0-8.88-3.81A3.27,3.27,0,0,0,17,60.31a2.91,2.91,0,0,0,.5,2.85C20.62,65,23.94,66.42,27.5,68.16ZM4.74,48.64a10.57,10.57,0,0,0,.75,1.87C7.26,53,9,55.42,10.91,57.78c1,1.29,2.49,1.61,3.78.34s1-2.53-.1-3.85c-1.66-2.1-3.27-4.24-4.8-6.44-.83-1.18-1.9-1.78-3.16-1.21C5.84,47,5.33,48,4.74,48.64ZM.65,35.06c.37,2.38.66,4.77,1.13,7.13.39,2,1.78,3.07,3.3,2.54,1.72-.59,2.09-1.82,1.7-3.62A52.34,52.34,0,0,1,5.85,34c-.16-2.29-.81-3.28-2.53-3.27S.87,31.71.85,34v1Z"/></g></g></svg>