<svg id="Layer_1" data-name="Layer 1" xmlns="http://www.w3.org/2000/svg" viewBox="0 0 58.94 32.44"><defs><style>.cls-1{fill:#fff;}.cls-2{fill:none;}</style></defs><title>past_eng</title><g id="past_eng"><path class="cls-1" d="M157.41,289.12c0,3.27-2.08,5.42-6.46,5.42h-2.86v4.81H145.4V283.46H151C155.33,283.46,157.41,285.86,157.41,289.12Zm-2.75,0c0-1.9-1-3.11-3.8-3.11h-2.77v6h2.77C153.63,292,154.66,291,154.66,289.1Z" transform="translate(-137.42 -277.36)"/><path class="cls-1" d="M168.08,292.08v6.51a14.92,14.92,0,0,1-5.21.89c-3.11,0-4.81-1.25-4.81-3.38s1.5-3.6,5-3.6h2.53v-.15c0-1.79-.92-2.29-3-2.29a6.44,6.44,0,0,0-3.7,1v-2.21a6.45,6.45,0,0,1,4-1.06C166.36,287.8,168.08,289.26,168.08,292.08Zm-2.5,5v-2.59h-2.89c-1.7,0-2.06.83-2.06,1.54,0,.9.81,1.41,2.17,1.41A8.76,8.76,0,0,0,165.58,297Z" transform="translate(-137.42 -277.36)"/><path class="cls-1" d="M169.74,295.66h2.57c0,1,1.45,1.49,2.91,1.49,1.65,0,2.68-.15,2.7-.91s-.89-.94-1.79-1.1l-2.19-.38c-2.37-.4-3.89-1.48-3.89-3.24,0-2.33,2.08-3.76,5-3.76s5.17,1.48,5.12,3.67h-2.57c0-.83-1.07-1.34-2.53-1.34s-2.48.33-2.48,1.2c0,.63.58,1,1.74,1.21l2.51.43c2.12.35,3.65,1.16,3.65,2.86,0,2.35-2.2,3.69-5.42,3.69S169.69,298,169.74,295.66Z" transform="translate(-137.42 -277.36)"/><path class="cls-1" d="M188.39,296.91v2.3a10.54,10.54,0,0,1-2.44.27c-2.86,0-3.13-1.74-3.13-3.67V290H181v-2.13h1.79v-3h2.46v3h2.84V290h-2.84v5.73c0,.89.16,1.43,1.23,1.43A7.76,7.76,0,0,0,188.39,296.91Z" transform="translate(-137.42 -277.36)"/></g><rect class="cls-2" width="58.94" height="32.44"/></svg>