<svg xmlns="http://www.w3.org/2000/svg" viewBox="0 0 65.46 65.62"><defs><style>.cls-1{fill:#fff;opacity:0.9;}</style></defs><title>Asset 5</title><g id="Layer_2" data-name="Layer 2"><g id="Layer_2-2" data-name="Layer 2"><path class="cls-1" d="M65.46,12.56c-.06.67-.12,1.34-.2,2a41.68,41.68,0,0,1-3.68,13.89,17.94,17.94,0,0,1-4.68,6.18,12.49,12.49,0,0,1-8.84,2.83l-.14,0c.13-.77.23-1.56.42-2.33a21.83,21.83,0,0,1,3.11-6.9c.82-1.25,1.74-2.42,2.62-3.62a.41.41,0,0,0,.08-.22l-.39.27a35.69,35.69,0,0,0-6.56,6.72,65.1,65.1,0,0,0-5.4,8.42,39,39,0,0,0-2.24,4.36A33,33,0,0,0,37.82,50a5.08,5.08,0,0,0,.07,1.45c.36,3.75.51,7.51.5,11.27a2.94,2.94,0,0,1-5.88,0c-.06-2.27-.07-4.54-.2-6.81a66.45,66.45,0,0,0-3-17.81,71.69,71.69,0,0,0-5.76-12.53,100.39,100.39,0,0,0-6.52-10,1.45,1.45,0,0,0-.17-.19c2.45,5.42,4.31,11,4.54,17.1-.89,0-1.74,0-2.57-.14a15.77,15.77,0,0,1-11-6.63,32,32,0,0,1-4.6-8.91A54.15,54.15,0,0,1,.73,6.72C.43,4.63.24,2.53,0,.43A2.94,2.94,0,0,1,0,0c.3,0,.61,0,.92,0A60.82,60.82,0,0,1,15.14,2.6,33.25,33.25,0,0,1,24.44,7a17.26,17.26,0,0,1,6.31,7.6,16.37,16.37,0,0,1,1.14,6.89,25.52,25.52,0,0,1-1,5.75.61.61,0,0,0,0,.46,39.85,39.85,0,0,1,4.56,10.55,3.46,3.46,0,0,1,.11.37c.07-.09.13-.15.17-.21a23.37,23.37,0,0,1,4-5.31.41.41,0,0,0,.08-.48,16.46,16.46,0,0,1-.51-5A12,12,0,0,1,42.69,20a20,20,0,0,1,6.77-4.6,39.16,39.16,0,0,1,9.64-2.8c1.86-.3,3.73-.49,5.6-.72a6.43,6.43,0,0,1,.76,0Z"/></g></g></svg>