<?xml version="1.0" encoding="utf-8"?>
<!-- Generator: Adobe Illustrator 24.0.1, SVG Export Plug-In . SVG Version: 6.00 Build 0)  -->
<svg version="1.1" id="Layer_1" xmlns="http://www.w3.org/2000/svg" xmlns:xlink="http://www.w3.org/1999/xlink" x="0px" y="0px"
	 viewBox="0 0 119.1 32.4" style="enable-background:new 0 0 119.1 32.4;" xml:space="preserve">
<style type="text/css">
	.st0{fill:#FFFFFF;}
	.st1{fill:none;}
</style>
<title>underwater_ara</title>
<g id="underwater_ara">
	<path class="st0" d="M24.4,19.6v2.2h-9.2v-2.2h2.5c-0.6-0.7-0.9-1.6-0.9-2.5c0-2.8,1.8-4.3,4.6-4.3c0.8,0,1.5,0.1,2.3,0.3v2.2
		c-0.8-0.1-1.5-0.2-2.3-0.2c-1.1-0.1-2.1,0.7-2.2,1.8c0,0.1,0,0.2,0,0.3c-0.1,1.3,0.8,2.4,2.1,2.5c0.1,0,0.1,0,0.2,0L24.4,19.6z"/>
	<path class="st0" d="M32,19.6v2.1h-0.4h-1.1c-1.9,0-3.1-1-3.1-2.9v-14h2.4V18c0,1,0.5,1.5,1.7,1.5L32,19.6z"/>
	<path class="st0" d="M47.1,19.6v2.1h-0.4H31.6h-0.4v-2.1h0.4h2.6c-0.2-1-0.3-2-0.3-3c0-2.8,1-5.6,5.2-5.6c3.3,0,5.4,2,5.4,5.5
		c0,1.1-0.3,2.2-0.8,3.1h2.9H47.1z M39.1,19.6c1.6,0,2.9-1.2,2.9-2.8c0-0.1,0-0.2,0-0.3c0-2-1.2-3.3-2.9-3.3c-2,0-2.5,1.5-2.5,3.1
		c0,1.1,0.2,2.2,0.5,3.3H39.1z"/>
	<path class="st0" d="M47.8,19.6c1.1,0,1.6-0.5,1.6-1.5V5h2.4v14c0,1.9-1.2,2.9-3.1,2.9h-2.1h-0.4v-2.3h0.4H47.8z"/>
	<rect x="55.6" y="5" class="st0" width="2.5" height="16.8"/>
	<path class="st0" d="M85.3,19.9v1.8l-0.4,0.2H71.2c-3.4,0-5.4-2.1-5.4-5.5c0-1.1,0.2-2.3,0.5-3.4h2.4c-0.3,1.1-0.4,2.3-0.4,3.4
		c-0.2,1.6,1,3.1,2.7,3.3c0.1,0,0.3,0,0.4,0h8.2v-8.4h2.5v8.4h2.8L85.3,19.9z M70.6,9c0-0.8,0.7-1.5,1.5-1.5c0,0,0,0,0,0
		c0.9,0,1.6,0.7,1.6,1.5c0,0,0,0,0,0c0,0.9-0.7,1.6-1.6,1.6c0,0,0,0,0,0C71.3,10.5,70.6,9.8,70.6,9C70.6,9,70.6,9,70.6,9 M74.6,9
		c0-0.9,0.7-1.5,1.6-1.5c0.8,0,1.5,0.7,1.5,1.5c0,0,0,0,0,0.1c0.1,0.9-0.6,1.6-1.4,1.7c-0.9,0.1-1.6-0.6-1.7-1.4
		C74.6,9.1,74.6,9.1,74.6,9"/>
	<path class="st0" d="M96.9,19.6v2.1h-0.4H84.9h-0.4v-2.1h0.4h6.8v-3.3c0.1-1.6-1.1-3-2.6-3.1c-0.1,0-0.2,0-0.3,0
		c-1.2,0-2.3,0.2-3.4,0.5v-2.3c1.1-0.3,2.3-0.5,3.4-0.5c3.4,0,5.5,2,5.5,5.4v3.3h2.3H96.9z"/>
	<path class="st0" d="M97.5,19.6c1.2,0,1.7-0.5,1.7-1.5v-6.9h2.5V19c0,1.9-1.2,2.9-3.1,2.9h-2.1L96,21.6v-1.8l0.4-0.2L97.5,19.6z
		 M96.9,7.3c0.1-0.9,0.8-1.5,1.7-1.4c0.8,0.1,1.4,0.7,1.4,1.4c0,0.9-0.7,1.6-1.6,1.6c0,0,0,0,0,0C97.6,8.8,96.9,8.1,96.9,7.3
		C96.9,7.3,96.9,7.3,96.9,7.3 M100.9,7.3c0-0.9,0.7-1.5,1.6-1.5c0.9,0.1,1.5,0.8,1.4,1.7c-0.1,0.8-0.7,1.4-1.4,1.4
		C101.6,8.8,100.9,8.1,100.9,7.3C100.9,7.3,100.9,7.3,100.9,7.3"/>
</g>
<rect class="st1" width="119.1" height="32.4"/>
</svg>
