<?xml version="1.0" encoding="utf-8"?>
<!-- Generator: Adobe Illustrator 24.0.1, SVG Export Plug-In . SVG Version: 6.00 Build 0)  -->
<svg version="1.1" id="Layer_1" xmlns="http://www.w3.org/2000/svg" xmlns:xlink="http://www.w3.org/1999/xlink" x="0px" y="0px"
	 viewBox="0 0 119.1 32.4" style="enable-background:new 0 0 119.1 32.4;" xml:space="preserve">
<style type="text/css">
	.st0{fill:#FFFFFF;}
	.st1{fill:none;}
</style>
<title>underwater_eng</title>
<g id="underwater_eng">
	<path class="st0" d="M0.5,15.6V6.1h2.7v9c0,3.4,1.6,4.4,3.9,4.4s3.9-1,3.9-4.4v-9h2.7v9.5c0,4.9-3,6.5-6.6,6.5S0.5,20.5,0.5,15.6z"
		/>
	<path class="st0" d="M26.3,14.8V22h-2.4v-6.3c0-1.9-1-2.7-2.4-2.7c-1.8,0-3,1.2-3,4v5H16V10.5h2.5v2.6c0.6-1.7,2.3-2.8,4.1-2.8
		C24.8,10.4,26.3,11.9,26.3,14.8z"/>
	<path class="st0" d="M39.4,6.1V22h-2.5v-1.9c-0.6,1.3-2,2.1-3.5,2c-3,0-5.5-2.3-5.5-5.9s2.2-5.9,5.2-5.9c1.6-0.1,3.1,0.8,3.8,2.2
		V6.1L39.4,6.1z M36.9,16.3c0-2.1-1.3-3.5-3.2-3.5s-3.2,1.4-3.2,3.5s1.3,3.5,3.2,3.5S36.9,18.4,36.9,16.3z"/>
	<path class="st0" d="M51.9,17.2h-8.1c0.3,1.7,1.4,2.5,3.9,2.5c1.4,0,2.8-0.3,4.1-0.9v2.4c-1.3,0.6-2.8,0.9-4.2,0.9
		c-4.1,0-6.4-2.3-6.4-5.8s2.3-5.9,5.6-5.9s5.4,2.2,5.4,5.1C52.1,16.1,52,16.6,51.9,17.2z M43.7,15.4h6c0-1.8-1.4-2.6-3-2.6
		C45.2,12.7,43.9,13.8,43.7,15.4L43.7,15.4z"/>
	<path class="st0" d="M61,10.5v2.4c-3.8,0-4.7,1.3-4.7,4.1v5h-2.4V10.5h2.4v2.6C56.9,11.7,57.4,10.5,61,10.5z"/>
	<path class="st0" d="M78.9,10.5L75.7,22h-3.8l-1.9-8.9H70L68.1,22h-3.8l-3.2-11.5h2.6l2.5,9.6l0,0l2.2-9.6h3.3l2.1,9.6l0,0l2.6-9.6
		H78.9z"/>
	<path class="st0" d="M89.5,14.7v6.5c-1.7,0.6-3.4,0.9-5.2,0.9c-3.1,0-4.8-1.3-4.8-3.4s1.5-3.6,5-3.6H87V15c0-1.8-0.9-2.3-3-2.3
		c-1.3,0-2.6,0.3-3.7,1v-2.2c1.2-0.8,2.6-1.1,4-1C87.8,10.4,89.5,11.9,89.5,14.7z M87,19.7v-2.6h-2.9c-1.7,0-2.1,0.8-2.1,1.5
		c0,0.9,0.8,1.4,2.2,1.4C85.2,20.1,86.1,19.9,87,19.7L87,19.7z"/>
	<path class="st0" d="M97.7,19.5v2.3c-0.8,0.2-1.6,0.3-2.4,0.3c-2.9,0-3.1-1.7-3.1-3.7v-5.8h-1.8v-2.1h1.8v-3h2.5v3h2.8v2.1h-2.8
		v5.7c0,0.9,0.1,1.4,1.2,1.4C96.5,19.8,97.1,19.7,97.7,19.5z"/>
	<path class="st0" d="M109.6,17.2h-8.1c0.3,1.7,1.4,2.5,3.9,2.5c1.4,0,2.8-0.3,4.1-0.9v2.4c-1.3,0.6-2.8,0.9-4.2,0.9
		c-4.1,0-6.4-2.3-6.4-5.8s2.3-5.9,5.6-5.9s5.4,2.2,5.4,5.1C109.8,16.1,109.7,16.6,109.6,17.2z M101.4,15.4h6c0-1.8-1.4-2.6-3-2.6
		C102.9,12.7,101.5,13.8,101.4,15.4z"/>
	<path class="st0" d="M118.6,10.5v2.4c-3.8,0-4.7,1.3-4.7,4.1v5h-2.4V10.5h2.4v2.6C114.6,11.7,115,10.5,118.6,10.5z"/>
</g>
<rect class="st1" width="119.1" height="32.4"/>
</svg>
