<svg xmlns="http://www.w3.org/2000/svg" viewBox="0 0 78.82 65.92"><defs><style>.cls-1{fill:#fff;opacity:0.9;}</style></defs><title>Asset 6</title><g id="Layer_2" data-name="Layer 2"><g id="Layer_2-2" data-name="Layer 2"><path class="cls-1" d="M11.57,10.07A17.4,17.4,0,0,1,1.63,7.31C.67,6.7-.2,6,0,4.72A2.61,2.61,0,0,1,2.55,2.57a5.22,5.22,0,0,1,3,.66,10.53,10.53,0,0,0,11.3.21c8-4.67,16.05-4.3,24.2-.61A19,19,0,0,0,52.55,4.61a17.63,17.63,0,0,0,4.83-1.76c4.91-2.58,10-3.66,15.41-2a24.55,24.55,0,0,1,4.64,2.26,1.91,1.91,0,0,1,1,2.43,3.2,3.2,0,0,1-1.76,1.78,5,5,0,0,1-3.36-.35c-3.93-2.53-7.77-2.15-11.63,0A24.43,24.43,0,0,1,48.46,10a28.46,28.46,0,0,1-10.4-2.6c-3.74-1.69-7.62-2.9-11.77-2a19.9,19.9,0,0,0-4.93,1.91A20.24,20.24,0,0,1,11.57,10.07ZM76.33,20.65c1.16-.28,2.18-.78,2.44-2.08A2.37,2.37,0,0,0,77.34,16a17.53,17.53,0,0,0-2.5-1.4c-5.69-2.32-11.21-1.71-16.61,1A23.05,23.05,0,0,1,54,17.47c-4.57,1.27-8.9.27-13.13-1.62C33,12.36,25.2,11.9,17.51,16.3c-4,2.27-7.92,2.42-11.9,0A4,4,0,0,0,1.69,16c-1.93.88-2.2,3-.39,4a21.34,21.34,0,0,0,5.4,2.5,18.06,18.06,0,0,0,14.24-1.91,14.88,14.88,0,0,1,11-2.08,43.58,43.58,0,0,1,7,2.34,26.51,26.51,0,0,0,14.84,1.91A33,33,0,0,0,61.66,20c4-1.88,7.85-2.54,11.78.1a6.46,6.46,0,0,0,1.75.63A8.27,8.27,0,0,0,76.33,20.65ZM64.25,64.27c1.22.67,2.16.3,2.18-.95q.13-5.87,0-11.73c0-1.26-.84-1.64-2-1.05a14.89,14.89,0,0,0-2.78,1.7c-1,.81-1.65.74-2.64-.12A12.19,12.19,0,0,0,39.79,56a3.1,3.1,0,0,0-.19,2.32c2,4.28,5.3,7,10.13,7.49,4.17.45,7.53-1.2,10.49-4.1C61.63,62.64,62.91,63.52,64.25,64.27ZM44.6,57.37A1.18,1.18,0,0,1,43.18,56a2.16,2.16,0,0,1,1.46-1.36c.42-.08,1,.68,1.92,1.37C45.64,56.68,45.16,57.27,44.6,57.37Zm-9-14.77c1,.54,1.74.2,1.76-.83.07-3.32.06-6.65,0-10,0-.93-.69-1.27-1.54-.92a10.84,10.84,0,0,0-1.76,1c-1.81,1.2-1.8,1.21-3.53-.06A10.25,10.25,0,0,0,15.3,34.77a3.48,3.48,0,0,0-.06,4.07,10.28,10.28,0,0,0,8.55,5.08,10.57,10.57,0,0,0,8.38-3.5C33.41,41.21,34.5,42,35.65,42.6ZM20.93,35.42a1.93,1.93,0,0,1-1.36,1.28,1.18,1.18,0,0,1-1.34-1.44c.11-.57.73-1,1.12-1.56h.58C20.3,34.28,21,34.88,20.93,35.42Z"/></g></g></svg>