<?xml version="1.0" encoding="utf-8"?>
<!-- Generator: Adobe Illustrator 24.0.1, SVG Export Plug-In . SVG Version: 6.00 Build 0)  -->
<svg version="1.1" id="Layer_1" xmlns="http://www.w3.org/2000/svg" xmlns:xlink="http://www.w3.org/1999/xlink" x="0px" y="0px"
	 viewBox="0 0 89.1 32.4" style="enable-background:new 0 0 89.1 32.4;" xml:space="preserve">
<style type="text/css">
	.st0{fill:#FFFFFF;}
	.st1{fill:none;}
</style>
<title>vegetals_eng</title>
<g id="vegetals_eng">
	<path class="st0" d="M15.5,6.1L10.1,22H6L0.6,6.1h2.8l4.6,13.5h0.1l4.6-13.5L15.5,6.1z"/>
	<path class="st0" d="M27,17.2h-8.1c0.3,1.7,1.4,2.5,3.9,2.5c1.4,0,2.8-0.3,4.1-0.9v2.4c-1.3,0.6-2.8,0.9-4.2,0.9
		c-4.1,0-6.4-2.3-6.4-5.8s2.3-5.9,5.6-5.9s5.4,2.2,5.4,5.1C27.3,16.1,27.2,16.6,27,17.2z M18.9,15.4h6c0-1.8-1.4-2.6-3-2.6
		C20.3,12.7,19,13.8,18.9,15.4z"/>
	<path class="st0" d="M39.9,10.5v11.1c0,3.4-1.8,5.1-5.8,5.1c-3.6,0-5.2-1.4-5.3-3.9h2.6c0.2,1,1,1.8,2.7,1.8c2,0,3.3-0.7,3.3-3
		v-1.1c-0.7,1.2-1.9,1.6-3.5,1.6c-3,0-5.4-2.3-5.4-5.9s2.2-5.9,5.2-5.9c1.5-0.1,3,0.7,3.8,2v-1.9L39.9,10.5z M37.4,16.3
		c0-2.1-1.3-3.5-3.2-3.5s-3.2,1.4-3.2,3.5s1.3,3.5,3.2,3.5S37.4,18.4,37.4,16.3L37.4,16.3z"/>
	<path class="st0" d="M52.4,17.2h-8.1c0.3,1.7,1.4,2.5,3.9,2.5c1.4,0,2.8-0.3,4.1-0.9v2.4c-1.3,0.6-2.8,0.9-4.2,0.9
		c-4.1,0-6.4-2.3-6.4-5.8s2.3-5.9,5.6-5.9s5.4,2.2,5.4,5.1C52.7,16.1,52.6,16.6,52.4,17.2z M44.3,15.4h6c0-1.8-1.4-2.6-3-2.6
		C45.7,12.7,44.4,13.8,44.3,15.4z"/>
	<path class="st0" d="M60.5,19.5v2.3c-0.8,0.2-1.6,0.3-2.4,0.3c-2.9,0-3.1-1.7-3.1-3.7v-5.8h-1.8v-2.1h1.8v-3h2.5v3h2.8v2.1h-2.8
		v5.7c0,0.9,0.2,1.4,1.2,1.4C59.2,19.8,59.9,19.7,60.5,19.5z"/>
	<path class="st0" d="M71.4,14.7v6.5c-1.7,0.6-3.4,0.9-5.2,0.9c-3.1,0-4.8-1.3-4.8-3.4s1.5-3.6,5-3.6h2.6V15c0-1.8-0.9-2.3-3-2.3
		c-1.3,0-2.6,0.3-3.7,1v-2.2c1.2-0.8,2.6-1.1,4-1C69.7,10.4,71.4,11.9,71.4,14.7z M68.9,19.6v-2.6H66c-1.7,0-2.1,0.8-2.1,1.5
		c0,0.9,0.8,1.4,2.2,1.4C67.1,20,68,19.9,68.9,19.6z"/>
	<path class="st0" d="M73.5,6.1h2.4V22h-2.5L73.5,6.1z"/>
	<path class="st0" d="M77.7,18.3h2.6c0,1,1.5,1.5,2.9,1.5c1.7,0,2.7-0.1,2.7-0.9s-0.9-0.9-1.8-1.1l-2.2-0.4C79.6,17,78,15.9,78,14.2
		c0-2.3,2.1-3.8,5-3.8s5.2,1.5,5.1,3.7h-2.6c0-0.8-1.1-1.4-2.5-1.4s-2.5,0.3-2.5,1.2c0,0.6,0.6,1,1.8,1.2l2.5,0.4
		c2.1,0.4,3.6,1.2,3.6,2.9c0,2.4-2.2,3.7-5.4,3.7S77.7,20.6,77.7,18.3z"/>
</g>
<rect class="st1" width="89.1" height="32.4"/>
</svg>
