<?xml version="1.0" encoding="utf-8"?>
<!-- Generator: Adobe Illustrator 24.0.1, SVG Export Plug-In . SVG Version: 6.00 Build 0)  -->
<svg version="1.1" id="Layer_1" xmlns="http://www.w3.org/2000/svg" xmlns:xlink="http://www.w3.org/1999/xlink" x="0px" y="0px"
	 viewBox="0 0 89.1 32.4" style="enable-background:new 0 0 89.1 32.4;" xml:space="preserve">
<style type="text/css">
	.st0{fill:#FFFFFF;}
	.st1{fill:none;}
</style>
<title>vegetals_ara</title>
<g id="vegetals_ara">
	<path class="st0" d="M19.3,16.4c0-1.1,0.2-2.3,0.5-3.4h2.4c-0.3,1.1-0.4,2.3-0.4,3.4c-0.1,1.7,1.1,3.1,2.7,3.3c0.1,0,0.3,0,0.4,0
		h6.5c1.2,0,1.7-0.5,1.7-1.5v-6.9h2.5V19c0,1.9-1.3,2.9-3.1,2.9h-7.7C21.3,21.9,19.3,19.7,19.3,16.4 M24.1,9c0-0.8,0.7-1.5,1.5-1.5
		c0,0,0,0,0,0c0.9,0,1.6,0.7,1.6,1.5c0,0,0,0,0,0c0,0.9-0.7,1.6-1.6,1.6c0,0,0,0,0,0C24.7,10.5,24,9.8,24.1,9C24.1,9,24.1,9,24.1,9
		 M28.1,9c0-0.9,0.7-1.5,1.6-1.5c0.8,0,1.5,0.7,1.5,1.5c0,0,0,0,0,0c0,0.9-0.7,1.6-1.5,1.6c0,0,0,0,0,0C28.7,10.5,28.1,9.8,28.1,9
		C28.1,9,28.1,9,28.1,9"/>
	<path class="st0" d="M43.7,19.7v2.1h-0.4h-1.1c-1.9,0-3.1-1-3.1-2.9V5h2.5V18c0,1,0.5,1.5,1.7,1.5L43.7,19.7z"/>
	<path class="st0" d="M44.3,19.6c1.2,0,1.7-0.5,1.7-1.5v-6.9h2.5V19c0,1.9-1.2,2.9-3.1,2.9h-2.1l-0.4-0.2v-1.8l0.4-0.2H44.3z
		 M43.7,7.3c0-0.9,0.7-1.5,1.5-1.5c0,0,0,0,0,0c0.9-0.1,1.6,0.6,1.7,1.4C47,8,46.4,8.8,45.5,8.8c-0.1,0-0.2,0-0.2,0
		C44.4,8.8,43.7,8.1,43.7,7.3C43.7,7.3,43.7,7.3,43.7,7.3 M47.7,7.3c0-0.9,0.7-1.5,1.6-1.5c0.9,0.1,1.5,0.8,1.4,1.7
		c-0.1,0.8-0.7,1.4-1.4,1.4C48.5,8.8,47.8,8.1,47.7,7.3C47.8,7.3,47.8,7.3,47.7,7.3"/>
	<path class="st0" d="M56.7,19.7v2.1h-0.4h-1.1c-1.9,0-3.1-1-3.1-2.9V5h2.5V18c0,1,0.5,1.5,1.7,1.5L56.7,19.7z"/>
	<path class="st0" d="M64.7,19.9v1.8l-0.4,0.2h-8l-0.4-0.2v-1.8l0.4-0.2H59v-8.4h2.5v8.4h2.8L64.7,19.9z M61.8,25.9
		c0,0.8-0.7,1.5-1.5,1.5c0,0,0,0,0,0c-0.8,0-1.5-0.7-1.5-1.5c0,0,0,0,0,0c-0.1-0.9,0.6-1.6,1.4-1.7c0.9-0.1,1.6,0.6,1.7,1.4
		C61.8,25.7,61.8,25.8,61.8,25.9"/>
	<path class="st0" d="M65.3,19.6c1.2,0,1.7-0.5,1.7-1.5v-6.9h2.5V19c0,1.9-1.2,2.9-3.1,2.9h-2.1l-0.4-0.2v-1.8l0.4-0.2H65.3z
		 M66.7,7.3c0-0.9,0.7-1.6,1.5-1.6c0,0,0,0,0,0c0.9,0.1,1.5,0.8,1.4,1.7c-0.1,0.8-0.7,1.4-1.4,1.4C67.4,8.8,66.7,8.2,66.7,7.3
		C66.7,7.3,66.7,7.3,66.7,7.3"/>
</g>
<rect class="st1" width="89.1" height="32.4"/>
</svg>
